<?xml version="1.0" standalone="no"?>
<!DOCTYPE svg PUBLIC "-//W3C//DTD SVG 20010904//EN"
 "http://www.w3.org/TR/2001/REC-SVG-20010904/DTD/svg10.dtd">
<svg version="1.0" xmlns="http://www.w3.org/2000/svg"
 width="8.000000pt" height="8.000000pt" viewBox="0 0 8.000000 8.000000"
 preserveAspectRatio="xMidYMid meet">

<g transform="translate(0.000000,16.000000) scale(0.100000,-0.100000)"
fill="#000000" stroke="none">
<path d="M92 144 c-12 -8 -20 -20 -16 -25 4 -6 14 -3 25 7 15 13 22 15 31 6 9
-9 7 -16 -6 -31 -16 -18 -20 -18 -33 -6 -21 21 -31 19 -64 -14 -33 -33 -36
-52 -13 -72 13 -11 20 -11 42 1 14 8 24 19 23 24 -1 4 11 17 28 27 40 24 59
62 41 84 -16 19 -30 19 -58 -1z m-36 -112 c-12 -12 -19 -13 -28 -4 -9 9 -7 16
7 32 17 19 20 19 28 4 6 -11 4 -21 -7 -32z"/>
</g>
</svg>
