<svg width="44" height="30" viewBox="0 0 44 30" fill="none" xmlns="http://www.w3.org/2000/svg">
<path fill-rule="evenodd" clip-rule="evenodd" d="M9.65845 10.9026C14.9691 10.9026 19.2741 15.1757 19.2741 20.4484C19.2741 25.7195 14.9691 29.993 9.65845 29.993C4.34797 29.993 0.0429109 25.7195 0.0429109 20.4484L0 19.0841C0 8.54111 8.61007 -0.00634766 19.2312 -0.00634766V5.44727C15.562 5.44727 12.1124 6.86613 9.51792 9.44241C9.0185 9.93767 8.56269 10.466 8.15163 11.0211C8.64259 10.9451 9.14578 10.9026 9.65845 10.9026ZM34.3844 10.9026C39.6949 10.9026 43.9999 15.1757 43.9999 20.4484C43.9999 25.7195 39.6949 29.993 34.3844 29.993C29.0738 29.993 24.7687 25.7195 24.7687 20.4484L24.7258 19.0841C24.7258 8.54111 33.336 -0.00634766 43.957 -0.00634766V5.44727C40.2879 5.44727 36.8383 6.86613 34.2438 9.44241C33.7443 9.93767 33.2886 10.466 32.8774 11.0211C33.3685 10.9451 33.8715 10.9026 34.3844 10.9026Z" fill="#18CFAB"/>
</svg>
